<?xml version="1.0" encoding="UTF-8" standalone="no"?>
<!-- Created with Inkscape (http://www.inkscape.org/) -->

<svg
   xmlns:dc="http://purl.org/dc/elements/1.1/"
   xmlns:cc="http://creativecommons.org/ns#"
   xmlns:rdf="http://www.w3.org/1999/02/22-rdf-syntax-ns#"
   xmlns:svg="http://www.w3.org/2000/svg"
   xmlns="http://www.w3.org/2000/svg"
   xmlns:sodipodi="http://sodipodi.sourceforge.net/DTD/sodipodi-0.dtd"
   xmlns:inkscape="http://www.inkscape.org/namespaces/inkscape"
   id="svg3406"
   sodipodi:docname="hourly_success_100.svg"
   viewBox="0 0 400 400"
   version="1.1"
   inkscape:version="0.48.1 "
   width="100%"
   height="100%"
   inkscape:export-filename="D:\Users\Plouf\workspace\Vocabulary\web\img\32\hourly_success_100.png"
   inkscape:export-xdpi="7.1999998"
   inkscape:export-ydpi="7.1999998">
  <defs
     id="defs3408">
    <linearGradient
       id="linearGradient3431"
       y2="88.367996"
       gradientUnits="userSpaceOnUse"
       x2="260.10999"
       gradientTransform="matrix(1,0,0,1.114,22.0406,643.21)"
       y1="90.892998"
       x1="278.79999"
       inkscape:collect="always">
      <stop
         id="stop3427"
         style="stop-color:#ffefd5"
         offset="0" />
      <stop
         id="stop3429"
         style="stop-color:#ffefd5;stop-opacity:0"
         offset="1" />
    </linearGradient>
    <linearGradient
       id="linearGradient3435"
       y2="88.367996"
       gradientUnits="userSpaceOnUse"
       x2="260.10999"
       gradientTransform="matrix(-1,0,0,1.114,380.14,643.21)"
       y1="90.892998"
       x1="278.79999"
       inkscape:collect="always">
      <stop
         id="stop3439"
         style="stop-color:#ffa500"
         offset="0" />
      <stop
         id="stop3441"
         style="stop-color:#ffefd5;stop-opacity:0"
         offset="1" />
    </linearGradient>
  </defs>
  <sodipodi:namedview
     id="base"
     bordercolor="#666666"
     inkscape:pageshadow="2"
     inkscape:window-y="218"
     pagecolor="#ffffff"
     inkscape:window-height="767"
     inkscape:window-maximized="0"
     inkscape:zoom="0.98994949"
     inkscape:window-x="1947"
     showgrid="false"
     borderopacity="1.0"
     inkscape:current-layer="layer1"
     inkscape:cx="165.76506"
     inkscape:cy="172.93036"
     inkscape:window-width="850"
     inkscape:pageopacity="0.0"
     inkscape:document-units="px" />
  <g
     id="layer1"
     inkscape:label="Layer 1"
     inkscape:groupmode="layer"
     transform="translate(0,-652.36)">
    <g
       id="g2991">
      <path
         d="m 364.51,700.58 c -10.267,-11.819 -27.482,-15.761 -47.383,-12.838 0.84321,-7.5729 1.6686,-15.153 2.51,-22.716 -78.445,-8.6625 -157.63,-8.6625 -236.07,0 0.86149,7.869 1.7554,15.759 2.6142,23.647 -22.111,-4.4747 -41.38,-0.91725 -52.594,11.907 -22.429,25.778 -3.7919,78.795 41.696,118.45 6.0368,5.2905 12.303,10.029 18.62,14.285 6.2306,4.2033 12.495,7.7735 18.762,10.914 15.511,25.053 41.836,42.54 71.458,47.586 13.511,17.543 7.2648,45.753 -3.0173,113.66 -22.112,5.0373 -41.172,17.998 -54.088,35.73 h 149.17 c -12.917,-17.732 -31.957,-30.712 -54.069,-35.73 -7.3134,-62.952 -13.417,-95.087 -3.0534,-113.67 31.166,-5.3074 58.614,-24.34 73.706,-51.445 3.845,-2.1764 7.6702,-4.5017 11.425,-7.0556 6.3174,-4.2554 12.548,-8.9942 18.601,-14.285 45.524,-39.651 64.179,-92.668 41.716,-118.45 z M 92.04,808.69 c -1.51,-1.2294 -3.0351,-2.3948 -4.4926,-3.6937 -39.1,-34.089 -53.333,-76.787 -39.907,-92.168 6.9678,-7.9668 22.253,-9.4321 40.731,-4.4043 3.8779,35.466 7.8265,70.925 11.74,106.4 -2.6846,-1.9483 -5.4217,-3.9569 -8.0711,-6.1337 z m 8.423,6.4134 h 0.11882 c 0,0 0,0.0914 0.0914,0.15082 -0.0914,0 -0.15539,-0.0914 -0.19652,-0.12796 z m 144.34,6.1516 -45.733,-24.051 -45.769,24.051 8.758,-50.918 -37.013,-36.073 51.138,-7.4143 22.886,-46.338 22.83,46.338 51.156,7.4143 -37.011,36.073 z m 65.756,-16.259 c -1.457,1.2989 -2.9839,2.4652 -4.4756,3.6937 -0.84275,0.67594 -1.6663,1.2458 -2.5086,1.9131 3.8262,-34.493 7.5976,-68.967 11.424,-103.46 16.076,-3.3943 29.186,-1.5164 35.45,5.6858 13.442,15.383 -0.78745,58.08 -39.89,92.169 z"
         style="fill:#ffd700"
         inkscape:connector-curvature="0"
         sodipodi:nodetypes="ccccccccccccccccccccccccccccscccccccccccccccccc"
         id="path3393" />
      <path
         d="m 310.94,670.19 -13.13,-1.69 -28.92,187.74 25.66,-32.16 z"
         inkscape:connector-curvature="0"
         style="fill:url(#linearGradient3431)"
         sodipodi:nodetypes="ccccc"
         id="path3423" />
      <path
         inkscape:connector-curvature="0"
         style="fill:url(#linearGradient3435)"
         d="m 91.236,670.19 13.132,-1.688 22.851,179.52 -18.515,-26.092 z"
         sodipodi:nodetypes="ccccc"
         id="path3433" />
    </g>
  </g>
  <metadata
     id="metadata15">
    <rdf:RDF>
      <cc:Work>
        <dc:format>image/svg+xml</dc:format>
        <dc:type
           rdf:resource="http://purl.org/dc/dcmitype/StillImage" />
        <cc:license
           rdf:resource="http://creativecommons.org/licenses/publicdomain/" />
        <dc:publisher>
          <cc:Agent
             rdf:about="http://openclipart.org/">
            <dc:title>Openclipart</dc:title>
          </cc:Agent>
        </dc:publisher>
        <dc:title></dc:title>
      </cc:Work>
      <cc:License
         rdf:about="http://creativecommons.org/licenses/publicdomain/">
        <cc:permits
           rdf:resource="http://creativecommons.org/ns#Reproduction" />
        <cc:permits
           rdf:resource="http://creativecommons.org/ns#Distribution" />
        <cc:permits
           rdf:resource="http://creativecommons.org/ns#DerivativeWorks" />
      </cc:License>
    </rdf:RDF>
  </metadata>
</svg>
