<?xml version="1.0" encoding="UTF-8" standalone="no"?>
<!-- Created with Inkscape (http://www.inkscape.org/) -->

<svg
   xmlns:dc="http://purl.org/dc/elements/1.1/"
   xmlns:cc="http://creativecommons.org/ns#"
   xmlns:rdf="http://www.w3.org/1999/02/22-rdf-syntax-ns#"
   xmlns:svg="http://www.w3.org/2000/svg"
   xmlns="http://www.w3.org/2000/svg"
   xmlns:sodipodi="http://sodipodi.sourceforge.net/DTD/sodipodi-0.dtd"
   xmlns:inkscape="http://www.inkscape.org/namespaces/inkscape"
   id="svg12417"
   sodipodi:docname="row_success_100.svg"
   viewBox="0 0 272.48 272.48"
   version="1.1"
   inkscape:version="0.48.1 "
   width="100%"
   height="100%"
   inkscape:export-filename="D:\Users\Plouf\workspace\Vocabulary\web\img\32\row_success_100.png"
   inkscape:export-xdpi="10.57"
   inkscape:export-ydpi="10.57">
  <defs
     id="defs18" />
  <sodipodi:namedview
     id="base"
     bordercolor="#666666"
     inkscape:pageshadow="2"
     inkscape:window-y="-8"
     pagecolor="#ffffff"
     inkscape:window-height="1028"
     inkscape:window-maximized="1"
     inkscape:zoom="1.216"
     inkscape:window-x="1272"
     showgrid="false"
     borderopacity="1.0"
     inkscape:current-layer="layer1"
     inkscape:cx="125.57323"
     inkscape:cy="151.49988"
     showguides="true"
     inkscape:guide-bbox="true"
     inkscape:window-width="1680"
     inkscape:pageopacity="0.0"
     inkscape:document-units="px" />
  <g
     id="layer1"
     inkscape:label="Layer 1"
     inkscape:groupmode="layer"
     transform="translate(-212.27 -406.16)">
    <g
       id="g13175"
       transform="translate(-.55851 -.022992)">
      <path
         id="path12427"
         sodipodi:rx="180.62735"
         sodipodi:ry="180.62735"
         style="color:#000000;stroke:#ff0000;stroke-linecap:round;stroke-width:5.8741;fill:#ffffff"
         sodipodi:type="arc"
         d="m 531.76691,557.68408 c 0,99.75773 -80.86962,180.62735 -180.62735,180.62735 -99.75773,0 -180.62735,-80.86962 -180.62735,-180.62735 0,-99.75773 80.86962,-180.62735 180.62735,-180.62735 99.75773,0 180.62735,80.86962 180.62735,180.62735 z"
         transform="matrix(.68096 0 0 .68096 109.95 162.66)"
         sodipodi:cy="557.68408"
         sodipodi:cx="351.13956" />
      <path
         id="path12427-9"
         sodipodi:rx="180.62735"
         sodipodi:ry="180.62735"
         style="color:#000000;stroke:#ff0000;stroke-linecap:round;stroke-width:8.8111;fill:#ff0000"
         sodipodi:type="arc"
         d="m 531.76691,557.68408 c 0,99.75773 -80.86962,180.62735 -180.62735,180.62735 -99.75773,0 -180.62735,-80.86962 -180.62735,-180.62735 0,-99.75773 80.86962,-180.62735 180.62735,-180.62735 99.75773,0 180.62735,80.86962 180.62735,180.62735 z"
         transform="matrix(.56747 0 0 .56747 149.8 225.95)"
         sodipodi:cy="557.68408"
         sodipodi:cx="351.13956" />
      <path
         id="path12427-9-3"
         sodipodi:rx="180.62735"
         sodipodi:ry="180.62735"
         style="color:#000000;fill:#ffffff"
         sodipodi:type="arc"
         d="m 531.76691,557.68408 c 0,99.75773 -80.86962,180.62735 -180.62735,180.62735 -99.75773,0 -180.62735,-80.86962 -180.62735,-180.62735 0,-99.75773 80.86962,-180.62735 180.62735,-180.62735 99.75773,0 180.62735,80.86962 180.62735,180.62735 z"
         transform="matrix(.49826 0 0 .49826 174.1 264.55)"
         sodipodi:cy="557.68408"
         sodipodi:cx="351.13956" />
      <path
         id="path12427-9-3-9"
         sodipodi:rx="180.62735"
         sodipodi:ry="180.62735"
         style="color:#000000;fill:#ff0000"
         sodipodi:type="arc"
         d="m 531.76691,557.68408 c 0,99.75773 -80.86962,180.62735 -180.62735,180.62735 -99.75773,0 -180.62735,-80.86962 -180.62735,-180.62735 0,-99.75773 80.86962,-180.62735 180.62735,-180.62735 99.75773,0 180.62735,80.86962 180.62735,180.62735 z"
         transform="matrix(.41522 0 0 .41522 203.26 310.86)"
         sodipodi:cy="557.68408"
         sodipodi:cx="351.13956" />
      <path
         id="path12427-9-3-9-8"
         sodipodi:rx="180.62735"
         sodipodi:ry="180.62735"
         style="color:#000000;fill:#ffffff"
         sodipodi:type="arc"
         d="m 531.76691,557.68408 c 0,99.75773 -80.86962,180.62735 -180.62735,180.62735 -99.75773,0 -180.62735,-80.86962 -180.62735,-180.62735 0,-99.75773 80.86962,-180.62735 180.62735,-180.62735 99.75773,0 180.62735,80.86962 180.62735,180.62735 z"
         transform="matrix(.33218 0 0 .33218 232.42 357.17)"
         sodipodi:cy="557.68408"
         sodipodi:cx="351.13956" />
      <path
         id="path12427-9-3-9-8-5"
         sodipodi:rx="180.62735"
         sodipodi:ry="180.62735"
         style="color:#000000;fill:#ff0000"
         sodipodi:type="arc"
         d="m 531.76691,557.68408 c 0,99.75773 -80.86962,180.62735 -180.62735,180.62735 -99.75773,0 -180.62735,-80.86962 -180.62735,-180.62735 0,-99.75773 80.86962,-180.62735 180.62735,-180.62735 99.75773,0 180.62735,80.86962 180.62735,180.62735 z"
         transform="matrix(.24913 0 0 .24913 261.58 403.48)"
         sodipodi:cy="557.68408"
         sodipodi:cx="351.13956" />
      <path
         id="path12427-9-3-9-8-2"
         sodipodi:rx="180.62735"
         sodipodi:ry="180.62735"
         style="color:#000000;fill:#ffffff"
         sodipodi:type="arc"
         d="m 531.76691,557.68408 c 0,99.75773 -80.86962,180.62735 -180.62735,180.62735 -99.75773,0 -180.62735,-80.86962 -180.62735,-180.62735 0,-99.75773 80.86962,-180.62735 180.62735,-180.62735 99.75773,0 180.62735,80.86962 180.62735,180.62735 z"
         transform="matrix(.16609 0 0 .16609 290.74 449.79)"
         sodipodi:cy="557.68408"
         sodipodi:cx="351.13956" />
      <path
         id="path12427-9-3-9-8-2-3"
         sodipodi:rx="180.62735"
         sodipodi:ry="180.62735"
         style="color:#000000;fill:#ff0000"
         sodipodi:type="arc"
         d="m 531.76691,557.68408 c 0,99.75773 -80.86962,180.62735 -180.62735,180.62735 -99.75773,0 -180.62735,-80.86962 -180.62735,-180.62735 0,-99.75773 80.86962,-180.62735 180.62735,-180.62735 99.75773,0 180.62735,80.86962 180.62735,180.62735 z"
         transform="matrix(.083044 0 0 .083044 319.9 496.11)"
         sodipodi:cy="557.68408"
         sodipodi:cx="351.13956" />
    </g>
    <path
       id="path13189"
       style="fill:none;stroke:#000000;stroke-width:1.06761098"
       d="M 255.18083,541.07932 H 448.0483"
       inkscape:connector-curvature="0" />
    <path
       id="path13189-0"
       style="stroke:#000000;stroke-width:1.5;fill:none"
       d="m348.51 406.91v270.98" />
    <text
       xml:space="preserve"
       style="font-size:109.58260345px;font-style:normal;font-weight:normal;line-height:125%;letter-spacing:0px;word-spacing:0px;fill:#000000;fill-opacity:1;stroke:none;font-family:Sans"
       x="365.82977"
       y="563.26074"
       id="text2995"
       sodipodi:linespacing="125%"
       transform="scale(0.97061305,1.0302767)"><tspan
         sodipodi:role="line"
         id="tspan2997"
         x="365.82977"
         y="563.26074"
         style="font-style:normal;font-variant:normal;font-weight:normal;font-stretch:normal;text-align:center;text-anchor:middle;font-family:Snap ITC;-inkscape-font-specification:Snap ITC">100</tspan></text>
    <text
       xml:space="preserve"
       style="font-size:109.58260345px;font-style:normal;font-weight:normal;line-height:125%;letter-spacing:0px;word-spacing:0px;fill:#00d400;fill-opacity:1;stroke:none;font-family:Sans"
       x="361.47778"
       y="558.88049"
       id="text2995-7"
       sodipodi:linespacing="125%"
       transform="scale(0.97061305,1.0302767)"><tspan
         sodipodi:role="line"
         id="tspan2997-8"
         x="361.47778"
         y="558.88049"
         style="font-style:normal;font-variant:normal;font-weight:normal;font-stretch:normal;text-align:center;text-anchor:middle;fill:#00d400;font-family:Snap ITC;-inkscape-font-specification:Snap ITC">100</tspan></text>
  </g>
  <metadata
     id="metadata16">
    <rdf:RDF>
      <cc:Work>
        <dc:format>image/svg+xml</dc:format>
        <dc:type
           rdf:resource="http://purl.org/dc/dcmitype/StillImage" />
        <cc:license
           rdf:resource="http://creativecommons.org/licenses/publicdomain/" />
        <dc:publisher>
          <cc:Agent
             rdf:about="http://openclipart.org/">
            <dc:title>Openclipart</dc:title>
          </cc:Agent>
        </dc:publisher>
        <dc:title></dc:title>
        <dc:date>2010-03-24T04:08:05</dc:date>
        <dc:description>A simple red target sign, done in Inkscape.</dc:description>
        <dc:source>https://openclipart.org/detail/33643/target-by-j_alves</dc:source>
        <dc:creator>
          <cc:Agent>
            <dc:title>J_Alves</dc:title>
          </cc:Agent>
        </dc:creator>
        <dc:subject>
          <rdf:Bag>
            <rdf:li>shooting</rdf:li>
            <rdf:li>sign</rdf:li>
            <rdf:li>sport</rdf:li>
            <rdf:li>sports2010</rdf:li>
            <rdf:li>symbol</rdf:li>
            <rdf:li>target</rdf:li>
          </rdf:Bag>
        </dc:subject>
      </cc:Work>
      <cc:License
         rdf:about="http://creativecommons.org/licenses/publicdomain/">
        <cc:permits
           rdf:resource="http://creativecommons.org/ns#Reproduction" />
        <cc:permits
           rdf:resource="http://creativecommons.org/ns#Distribution" />
        <cc:permits
           rdf:resource="http://creativecommons.org/ns#DerivativeWorks" />
      </cc:License>
    </rdf:RDF>
  </metadata>
</svg>
