<?xml version="1.0" encoding="UTF-8" standalone="no"?>
<svg
   xmlns:dc="http://purl.org/dc/elements/1.1/"
   xmlns:cc="http://creativecommons.org/ns#"
   xmlns:rdf="http://www.w3.org/1999/02/22-rdf-syntax-ns#"
   xmlns:svg="http://www.w3.org/2000/svg"
   xmlns="http://www.w3.org/2000/svg"
   xmlns:sodipodi="http://sodipodi.sourceforge.net/DTD/sodipodi-0.dtd"
   xmlns:inkscape="http://www.inkscape.org/namespaces/inkscape"
   id="svg2"
   viewBox="0 0 512 512"
   version="1.1"
   inkscape:version="0.48.1 "
   width="100%"
   height="100%"
   sodipodi:docname="success_50.svg"
   inkscape:export-filename="D:\Users\Plouf\workspace\Vocabulary\web\img\32\success_50.png"
   inkscape:export-xdpi="5.6300001"
   inkscape:export-ydpi="5.6300001">
  <defs
     id="defs26" />
  <sodipodi:namedview
     pagecolor="#ffffff"
     bordercolor="#666666"
     borderopacity="1"
     objecttolerance="10"
     gridtolerance="10"
     guidetolerance="10"
     inkscape:pageopacity="0"
     inkscape:pageshadow="2"
     inkscape:window-width="1077"
     inkscape:window-height="616"
     id="namedview24"
     showgrid="false"
     inkscape:zoom="0.56835938"
     inkscape:cx="256"
     inkscape:cy="237.59661"
     inkscape:window-x="1373"
     inkscape:window-y="272"
     inkscape:window-maximized="0"
     inkscape:current-layer="svg2" />
  <path
     inkscape:connector-curvature="0"
     d="m 229.14,0 -2.0229,3.4642 -23.365,39.902 -39.143,-24.68 -3.3884,-2.1494 -1.0115,3.8941 -11.758,44.732 -44.327,-13.2 -3.8435,-1.1379 0.0506,3.9953 0.75859,46.249 -46.249,-0.75859 -4.0205,-0.0506 1.1632,3.8436 13.2,44.327 -44.757,11.758 -3.8688,1.0115 2.1494,3.3884 24.68,39.118 -39.927,23.39 -3.4642,2.0482 2.9838,2.6804 34.314,31.026 -32.114,33.277 -2.7815,2.8826 3.5907,1.7953 41.419,20.608 -21.949,40.711 -1.9218,3.5401 3.9447,0.7586 45.44,8.648 -10.14,45.136 -0.88503,3.9194 3.9953,-0.32873 46.072,-3.9194 2.4275,46.198 0.20229,3.9953 3.7677,-1.3908 43.316,-16.209 14.767,43.847 1.2896,3.793 3.2367,-2.3769 37.348,-27.284 26.07,38.233 2.2505,3.3125 2.4781,-3.1608 28.599,-36.337 35.401,29.762 3.085,2.5792 1.5425,-3.7171 17.726,-42.709 42.127,19.117 3.6412,1.6436 0.48045,-3.97 5.563,-45.92 45.718,7.0549 3.9447,0.60687 -0.60687,-3.97 -7.0549,-45.718 45.945,-5.563 3.97,-0.48045 -1.6436,-3.6412 -19.117,-42.127 42.709,-17.726 3.7171,-1.5425 -2.6045,-3.0597 -29.762,-35.401 36.362,-28.624 3.1355,-2.4781 -3.3125,-2.2505 -38.208,-26.045 27.284,-37.373 2.3769,-3.2367 -3.8183,-1.2643 -43.821,-14.793 16.183,-43.316 1.416,-3.7677 -3.9953,-0.20229 -46.224,-2.4022 3.9194,-46.097 0.35401,-3.9953 -3.9194,0.88504 -45.111,10.165 -8.6985,-45.465 -0.7586,-3.9194 -3.5148,1.8965 -40.711,21.949 -20.608,-41.419 -1.7953,-3.5907 -2.8826,2.7815 -33.302,32.139 -31.001,-34.339 -2.7057,-2.9585 z m 1.0367,9.887 30.344,33.606 2.0482,2.2505 2.1746,-2.1241 32.594,-31.431 20.179,40.534 1.3402,2.7309 2.6804,-1.4413 39.877,-21.493 8.471,44.479 0.58159,2.9838 2.9585,-0.65744 44.201,-9.9376 -3.8435,45.111 -0.25287,3.0344 3.0344,0.15173 45.212,2.3516 -15.855,42.405 -1.062,2.8574 2.8827,0.96089 42.886,14.464 -26.702,36.564 -1.7953,2.4528 2.5286,1.7195 37.399,25.514 -35.578,27.992 -2.4022,1.8712 1.9724,2.3264 29.155,34.668 -41.849,17.346 -2.7815,1.1885 1.239,2.7562 18.737,41.242 -44.985,5.4113 -3.0091,0.37929 0.45515,3.0091 6.9032,44.757 -44.757,-6.9032 -2.9838,-0.48044 -0.37929,3.0344 -5.4366,44.934 -41.217,-18.712 -2.7815,-1.239 -1.1632,2.8068 -17.346,41.824 -34.668,-29.155 -2.3264,-1.9471 -1.8712,2.3769 -28.017,35.578 -25.489,-37.399 -1.7195,-2.5034 -2.4528,1.77 -36.564,26.728 -14.464,-42.911 -0.96089,-2.8827 -2.8574,1.062 -42.405,15.855 -2.3516,-45.212 -0.17701,-3.0344 -3.0091,0.25287 -45.136,3.8435 9.9376,-44.201 0.68273,-2.9585 -2.9838,-0.5563 -44.479,-8.4962 21.468,-39.877 1.4413,-2.6551 -2.7056,-1.3655 -40.559,-20.153 31.456,-32.594 2.0988,-2.1999 -2.2505,-2.0229 -33.606,-30.369 39.093,-22.91 2.6045,-1.5172 -1.6183,-2.5792 -24.149,-38.284 43.796,-11.531 2.9332,-0.75859 -0.85975,-2.908 -12.947,-43.392 45.288,0.73331 3.0344,0.0506 -0.0506,-3.0344 -0.70802,-45.288 43.392,12.921 2.908,0.88503 0.75859,-2.9585 11.505,-43.796 38.309,24.174 2.5539,1.6183 1.5425,-2.6298 22.91,-39.068 z"
     style="text-indent:0;text-transform:none;block-progression:tb;color:#000000;fill:#870303"
     id="path4672" />
  <path
     style="fill:#e60000"
     inkscape:connector-curvature="0"
     d="m 433.4435,433.43065 -48.72013,-7.50853 -5.91438,48.93941 -44.8879,-20.3749 -18.89898,45.52876 -37.72593,-31.72998 -30.48143,38.74144 -27.76667,-40.73119 -39.80307,29.08076 -15.74807,-46.71258 -46.17367,17.26364 -2.56086,-49.22909 -49.119045,4.16626 L 76.45954,372.77082 28.037998,363.5301 51.428675,320.13755 7.2957343,298.17586 41.526053,262.70266 4.9548055,229.64887 47.486399,204.72644 21.189183,163.03153 68.867098,150.508 54.794013,103.2638 l 49.288977,0.80458 -0.80459,-49.288976 47.2442,14.073084 12.52353,-47.677914 41.69491,26.297215 24.92244,-42.5315932 33.05378,36.5712472 35.4732,-34.2303184 21.96169,44.1329414 43.39255,-23.390678 9.24072,48.421542 48.09383,-10.816175 -4.16626,49.119045 49.2291,2.56086 -17.26365,46.17367 46.71258,15.74807 -29.08076,39.80307 40.73119,27.76667 -38.74144,30.48143 31.72998,37.72593 -45.52876,18.89898 20.3749,44.8879 -48.93941,5.91438 z"
     id="path4662" />
  <g
     style="stroke:#4f3a02;stroke-width:8"
     transform="matrix(0.73489,0,0,0.73489,-91.043,655.754)"
     id="g4668">
    <path
       style="fill:#e69b00"
       inkscape:connector-curvature="0"
       d="m 691.45,-324.76 -60.21,-9.2793 -7.3092,60.481 -55.474,-25.18 -23.356,56.266 -46.623,-39.213 -37.67,47.878 -34.315,-50.337 -49.19,35.939 -19.462,-57.729 -57.063,21.335 -3.1648,-60.839 -60.703,5.1488 13.367,-59.436 -59.841,-11.42 28.907,-53.626 -54.541,-27.141 42.303,-43.839 -45.196,-40.849 52.562,-30.8 -32.499,-51.528 58.922,-15.477 -17.392,-58.386 60.913,0.99432 -0.99433,-60.913 58.386,17.392 15.477,-58.922 51.528,32.499 30.8,-52.562 40.849,45.196 43.839,-42.303 27.141,54.541 53.626,-28.907 11.42,59.841 59.436,-13.367 -5.1488,60.703 60.839,3.1648 -21.335,57.063 57.729,19.462 -35.939,49.19 50.337,34.315 -47.878,37.67 39.213,46.623 -56.266,23.356 25.18,55.474 -60.481,7.3092 z"
       id="path4664" />
    <path
       style="fill:#ffdd55"
       inkscape:connector-curvature="0"
       transform="matrix(0.99144,-0.13053,0.13053,0.99144,75.141,56.873)"
       d="m 691.45,-324.76 -60.21,-9.2793 -7.3092,60.481 -55.474,-25.18 -23.356,56.266 -46.623,-39.213 -37.67,47.878 -34.315,-50.337 -49.19,35.939 -19.462,-57.729 -57.063,21.335 -3.1648,-60.839 -60.703,5.1488 13.367,-59.436 -59.841,-11.42 28.907,-53.626 -54.541,-27.141 42.303,-43.839 -45.196,-40.849 52.562,-30.8 -32.499,-51.528 58.922,-15.477 -17.392,-58.386 60.913,0.99432 -0.99433,-60.913 58.386,17.392 15.477,-58.922 51.528,32.499 30.8,-52.562 40.849,45.196 43.839,-42.303 27.141,54.541 53.626,-28.907 11.42,59.841 59.436,-13.367 -5.1488,60.703 60.839,3.1648 -21.335,57.063 57.729,19.462 -35.939,49.19 50.337,34.315 -47.878,37.67 39.213,46.623 -56.266,23.356 25.18,55.474 -60.481,7.3092 z"
       id="path4666" />
  </g>
  <path
     style="fill:#e69b00"
     inkscape:connector-curvature="0"
     d="m 417.09669,417.09112 -44.24773,-6.81926 -5.37145,44.44688 -40.76729,-18.50453 -17.16409,41.34932 -34.26278,-28.81724 -27.68331,35.18506 -25.21775,-36.99215 -36.14924,26.41121 -14.30242,-42.42447 -41.93503,15.67888 -2.32578,-44.70997 -44.61003,3.7838 9.823275,-43.67892 -43.976553,-8.39245 21.243465,-39.40921 -40.081635,-19.94565 31.088051,-32.21684 -33.214088,-30.01952 38.627288,-22.63461 -23.88319,-37.86742 43.301189,-11.37389 -12.781207,-42.90729 44.764355,0.73072 -0.73072,-44.764354 42.90728,12.781207 11.3739,-43.301189 37.86741,23.88319 22.63461,-38.627288 30.01952,33.214088 32.21684,-31.088051 19.94565,40.081635 39.40922,-21.243465 8.39244,43.976553 43.67892,-9.823275 -3.7838,44.610029 44.70997,2.32578 -15.67888,41.93503 42.42447,14.30243 -26.41121,36.14923 36.99215,25.21776 -35.18506,27.6833 28.81724,34.26278 -41.34932,17.16409 18.50453,40.76729 -44.44688,5.37145 z"
     id="path4658" />
  <path
     style="fill:#ffdd55"
     inkscape:connector-curvature="0"
     d="m 436.82343,394.60086 -44.75971,-0.98547 0.47597,44.76818 -42.83425,-13.02516 -11.62022,43.23634 -37.73141,-24.09876 -22.85414,38.49781 -29.83072,-33.38445 -32.39295,30.90397 -19.71775,-40.19507 -39.53016,21.01855 -8.14176,-44.02433 -43.73492,9.57428 4.03805,-44.58787 -44.696196,-2.5806 L 79.411227,337.873 37.068662,323.32953 63.685883,287.33017 26.837267,261.90251 62.180037,234.41942 33.55822,199.99301 75.004779,183.06433 56.732233,142.192 101.20943,137.07352 94.641996,92.787075 138.85091,99.8585 l 5.62472,-44.415759 40.66122,18.736376 17.39928,-41.251627 34.09833,29.011899 27.8837,-35.027557 25.00694,37.135671 36.2996,-26.205896 14.06085,42.505311 42.02346,-15.44061 2.07135,44.722702 44.63148,-3.52995 -10.07124,43.62318 43.92878,8.64267 -21.46706,39.28771 39.96764,20.17377 -31.27097,32.03934 33.0432,30.20856 -38.75559,22.41462 23.66763,38.00357 -43.36594,11.12707 z"
     id="path4660" />
  <path
     style="fill:none"
     inkscape:connector-curvature="0"
     d="m 98.822647,255.32504 c 1.887173,-85.29169 72.560673,-152.90179 157.851113,-151.01927 85.29169,1.88717 152.90178,72.56066 151.01927,157.8511 -1.88717,85.29169 -72.56067,152.90179 -157.85111,151.01928 C 164.56166,411.28966 96.957415,340.63334 98.8219,255.35023"
     id="path4676" />
  <path
     style="fill:#e6b52d;stroke:#e6b52d;stroke-width:7.93682289"
     inkscape:connector-curvature="0"
     d="M 204.07807,427.29851 C 110.98498,400.13412 57.542398,302.64578 84.701294,209.55269 111.86568,116.4596 209.35402,63.017016 302.44711,90.175912 395.5402,117.3403 448.98278,214.82863 421.82389,307.92173 394.66362,401.00247 297.19586,454.44368 204.10551,427.30674"
     id="path4695" />
  <path
     style="fill:#ece15f"
     inkscape:connector-curvature="0"
     d="M 204.07807,427.29851 C 110.98498,400.13412 57.542398,302.64578 84.701294,209.55269 111.86568,116.4596 209.35402,63.017016 302.44711,90.175912 395.5402,117.3403 448.98278,214.82863 421.82389,307.92173 394.66362,401.00247 297.19586,454.44368 204.10551,427.30674"
     id="path4693" />
  <text
     style="font-size:30.20319939px;font-weight:600;line-height:125%;fill:#5a4f39;font-family:URW Gothic L"
     sodipodi:linespacing="125%"
     font-weight="600"
     line-height="125%"
     xml:space="preserve"
     font-size="32px"
     id="text4678"
     x="-99.198997"
     y="678.86401">         </text>
  <text
     style="font-size:207.08114624px;font-weight:600;text-align:center;line-height:125%;text-anchor:middle;fill:#5a4f39;stroke:#000000;stroke-width:4.62641478;stroke-opacity:0.26576999;font-family:URW Gothic L"
     sodipodi:linespacing="125%"
     font-weight="600"
     x="3800.3982"
     y="323.00549"
     line-height="125%"
     xml:space="preserve"
     font-size="88.814px"
     id="text4701"><tspan
       font-weight="bold"
       x="251.03517"
       y="323.00549"
       style="font-weight:bold;text-align:center;text-anchor:middle;stroke-width:4.62641478;font-family:Sans"
       id="tspan4703">50<tspan
   style="text-align:center;text-anchor:middle;stroke-width:4.62641478"
   id="tspan3029"><tspan
     style="text-align:center;text-anchor:middle;stroke-width:4.62641478"
     id="tspan3031"><tspan
       style="text-align:center;text-anchor:middle;stroke-width:4.62641478"
       id="tspan3033" /></tspan></tspan></tspan></text>
  <metadata
     id="metadata22">
    <rdf:RDF>
      <cc:Work>
        <dc:format>image/svg+xml</dc:format>
        <dc:type
           rdf:resource="http://purl.org/dc/dcmitype/StillImage" />
        <cc:license
           rdf:resource="http://creativecommons.org/licenses/publicdomain/" />
        <dc:publisher>
          <cc:Agent
             rdf:about="http://openclipart.org/">
            <dc:title>Openclipart</dc:title>
          </cc:Agent>
        </dc:publisher>
        <dc:title></dc:title>
        <dc:date>2013-08-16T17:14:03</dc:date>
        <dc:description>Just a medal for giving rewards to people for winning the internet.
\n
\nColors inspired by gblas.ivan's work.</dc:description>
        <dc:source>https://openclipart.org/detail/181878/award-of-medal-and-achievement-by-qubodup-181878</dc:source>
        <dc:creator>
          <cc:Agent>
            <dc:title>qubodup</dc:title>
          </cc:Agent>
        </dc:creator>
        <dc:subject>
          <rdf:Bag>
            <rdf:li>academic</rdf:li>
            <rdf:li>achievement</rdf:li>
            <rdf:li>award</rdf:li>
            <rdf:li>badge</rdf:li>
            <rdf:li>gold</rdf:li>
            <rdf:li>honor</rdf:li>
            <rdf:li>medal</rdf:li>
            <rdf:li>medals</rdf:li>
            <rdf:li>merit</rdf:li>
            <rdf:li>red</rdf:li>
            <rdf:li>reward</rdf:li>
            <rdf:li>ribbon</rdf:li>
            <rdf:li>scholar</rdf:li>
            <rdf:li>scholarship</rdf:li>
            <rdf:li>shiny</rdf:li>
            <rdf:li>winner</rdf:li>
            <rdf:li>winning</rdf:li>
          </rdf:Bag>
        </dc:subject>
      </cc:Work>
      <cc:License
         rdf:about="http://creativecommons.org/licenses/publicdomain/">
        <cc:permits
           rdf:resource="http://creativecommons.org/ns#Reproduction" />
        <cc:permits
           rdf:resource="http://creativecommons.org/ns#Distribution" />
        <cc:permits
           rdf:resource="http://creativecommons.org/ns#DerivativeWorks" />
      </cc:License>
    </rdf:RDF>
  </metadata>
</svg>
